<svg width="99" height="22" viewBox="0 0 99 22" fill="none" xmlns="http://www.w3.org/2000/svg">
<path d="M3.85352 7.78906V5H16.9941V7.78906H12.0957V21H8.75195V7.78906H3.85352ZM17.8496 21V9H21.0762V11.0937H21.2012C21.4199 10.349 21.7871 9.78646 22.3027 9.40625C22.8184 9.02083 23.4121 8.82812 24.084 8.82812C24.2507 8.82812 24.4303 8.83854 24.623 8.85937C24.8158 8.88021 24.985 8.90885 25.1309 8.94531V11.8984C24.9746 11.8516 24.7585 11.8099 24.4824 11.7734C24.2064 11.737 23.9538 11.7188 23.7246 11.7188C23.235 11.7188 22.7975 11.8255 22.4121 12.0391C22.0319 12.2474 21.7298 12.5391 21.5059 12.9141C21.2871 13.2891 21.1777 13.7214 21.1777 14.2109V21H17.8496ZM29.9297 21.2266C29.1641 21.2266 28.4818 21.0938 27.8828 20.8281C27.2839 20.5573 26.8099 20.1589 26.4609 19.6328C26.1172 19.1016 25.9453 18.4401 25.9453 17.6484C25.9453 16.9818 26.0677 16.4219 26.3125 15.9687C26.5573 15.5156 26.8906 15.151 27.3125 14.875C27.7344 14.599 28.2135 14.3906 28.75 14.25C29.2917 14.1094 29.8594 14.0104 30.4531 13.9531C31.151 13.8802 31.7135 13.8125 32.1406 13.75C32.5677 13.6823 32.8776 13.5833 33.0703 13.4531C33.263 13.3229 33.3594 13.1302 33.3594 12.875V12.8281C33.3594 12.3333 33.2031 11.9505 32.8906 11.6797C32.5833 11.4089 32.1458 11.2734 31.5781 11.2734C30.9792 11.2734 30.5026 11.4062 30.1484 11.6719C29.7943 11.9323 29.5599 12.2604 29.4453 12.6562L26.3672 12.4062C26.5234 11.6771 26.8307 11.0469 27.2891 10.5156C27.7474 9.97917 28.3385 9.56771 29.0625 9.28125C29.7917 8.98958 30.6354 8.84375 31.5938 8.84375C32.2604 8.84375 32.8984 8.92187 33.5078 9.07812C34.1224 9.23437 34.6667 9.47656 35.1406 9.80469C35.6198 10.1328 35.9974 10.5547 36.2734 11.0703C36.5495 11.5807 36.6875 12.1927 36.6875 12.9062V21H33.5313V19.3359H33.4375C33.2448 19.7109 32.987 20.0417 32.6641 20.3281C32.3411 20.6094 31.9531 20.8307 31.5 20.9922C31.0469 21.1484 30.5234 21.2266 29.9297 21.2266ZM30.8828 18.9297C31.3724 18.9297 31.8047 18.8333 32.1797 18.6406C32.5547 18.4427 32.849 18.1771 33.0625 17.8438C33.276 17.5104 33.3828 17.1328 33.3828 16.7109V15.4375C33.2786 15.5052 33.1354 15.5677 32.9531 15.625C32.776 15.6771 32.5755 15.7266 32.3516 15.7734C32.1276 15.8151 31.9036 15.8542 31.6797 15.8906C31.4557 15.9219 31.2526 15.9505 31.0703 15.9766C30.6797 16.0339 30.3385 16.125 30.0469 16.25C29.7552 16.375 29.5286 16.5443 29.3672 16.7578C29.2057 16.9661 29.125 17.2266 29.125 17.5391C29.125 17.9922 29.2891 18.3385 29.6172 18.5781C29.9505 18.8125 30.3724 18.9297 30.8828 18.9297ZM39.2695 21V9H42.5977V21H39.2695ZM40.9414 7.45312C40.4466 7.45312 40.0221 7.28906 39.668 6.96094C39.319 6.6276 39.1445 6.22917 39.1445 5.76562C39.1445 5.30729 39.319 4.91406 39.668 4.58594C40.0221 4.2526 40.4466 4.08594 40.9414 4.08594C41.4362 4.08594 41.8581 4.2526 42.207 4.58594C42.5612 4.91406 42.7383 5.30729 42.7383 5.76562C42.7383 6.22917 42.5612 6.6276 42.207 6.96094C41.8581 7.28906 41.4362 7.45312 40.9414 7.45312ZM48.5918 14.0625V21H45.2637V9H48.4355V11.1172H48.5762C48.8418 10.4193 49.2871 9.86719 49.9121 9.46094C50.5371 9.04948 51.2949 8.84375 52.1855 8.84375C53.0189 8.84375 53.7454 9.02604 54.3652 9.39062C54.985 9.75521 55.4668 10.276 55.8105 10.9531C56.1543 11.625 56.3262 12.4271 56.3262 13.3594V21H52.998V13.9531C53.0033 13.2187 52.8158 12.6458 52.4355 12.2344C52.0553 11.8177 51.5319 11.6094 50.8652 11.6094C50.4173 11.6094 50.0215 11.7057 49.6777 11.8984C49.3392 12.0911 49.0736 12.3724 48.8809 12.7422C48.6934 13.1068 48.597 13.5469 48.5918 14.0625ZM64.041 21V9H67.2129V11.1172H67.3535C67.6035 10.4141 68.0202 9.85937 68.6035 9.45312C69.1868 9.04687 69.8848 8.84375 70.6973 8.84375C71.5202 8.84375 72.2207 9.04948 72.7988 9.46094C73.377 9.86719 73.7624 10.4193 73.9551 11.1172H74.0801C74.3249 10.4297 74.7676 9.88021 75.4082 9.46875C76.054 9.05208 76.8171 8.84375 77.6973 8.84375C78.8171 8.84375 79.7259 9.20052 80.4238 9.91406C81.127 10.6224 81.4785 11.6276 81.4785 12.9297V21H78.1582V13.5859C78.1582 12.9193 77.9811 12.4193 77.627 12.0859C77.2728 11.7526 76.8301 11.5859 76.2988 11.5859C75.6947 11.5859 75.2233 11.7786 74.8848 12.1641C74.5462 12.5443 74.377 13.0469 74.377 13.6719V21H71.1504V13.5156C71.1504 12.9271 70.9811 12.4583 70.6426 12.1094C70.3092 11.7604 69.8691 11.5859 69.3223 11.5859C68.9525 11.5859 68.6191 11.6797 68.3223 11.8672C68.0306 12.0495 67.7988 12.3073 67.627 12.6406C67.4551 12.9687 67.3691 13.3542 67.3691 13.7969V21H64.041ZM89.5762 21.2344C88.3418 21.2344 87.2793 20.9844 86.3887 20.4844C85.5033 19.9792 84.821 19.2656 84.3418 18.3437C83.8626 17.4167 83.623 16.3203 83.623 15.0547C83.623 13.8203 83.8626 12.737 84.3418 11.8047C84.821 10.8724 85.4954 10.1458 86.3652 9.625C87.2402 9.10417 88.2663 8.84375 89.4434 8.84375C90.235 8.84375 90.972 8.97135 91.6543 9.22656C92.3418 9.47656 92.9408 9.85417 93.4512 10.3594C93.9668 10.8646 94.3678 11.5 94.6543 12.2656C94.9408 13.026 95.084 13.9167 95.084 14.9375V15.8516H84.9512V13.7891H91.9512C91.9512 13.3099 91.847 12.8854 91.6387 12.5156C91.4303 12.1458 91.1413 11.8568 90.7715 11.6484C90.4069 11.4349 89.9824 11.3281 89.498 11.3281C88.9928 11.3281 88.5449 11.4453 88.1543 11.6797C87.7689 11.9089 87.4668 12.2187 87.248 12.6094C87.0293 12.9948 86.9173 13.4245 86.9121 13.8984V15.8594C86.9121 16.4531 87.0215 16.9661 87.2402 17.3984C87.4642 17.8307 87.7793 18.1641 88.1855 18.3984C88.5918 18.6328 89.0736 18.75 89.6309 18.75C90.0007 18.75 90.3392 18.6979 90.6465 18.5938C90.9538 18.4896 91.2168 18.3333 91.4355 18.125C91.6543 17.9167 91.821 17.6615 91.9355 17.3594L95.0137 17.5625C94.8574 18.3021 94.5371 18.9479 94.0527 19.5C93.5736 20.0469 92.9538 20.474 92.1934 20.7813C91.4382 21.0833 90.5658 21.2344 89.5762 21.2344Z" fill="#640FCD"/>
</svg>
