<svg width="87" height="18" viewBox="0 0 87 18" fill="none" xmlns="http://www.w3.org/2000/svg">
<path d="M7.23242 5V7.5H0.0058594V5H7.23242ZM1.64648 2.125H4.97461V13.3125C4.97461 13.6198 5.02148 13.8594 5.11523 14.0312C5.20898 14.1979 5.33919 14.3151 5.50586 14.3828C5.67773 14.4505 5.87565 14.4844 6.09961 14.4844C6.25586 14.4844 6.41211 14.4714 6.56836 14.4453C6.72461 14.4141 6.8444 14.3906 6.92773 14.375L7.45117 16.8516C7.28451 16.9036 7.05013 16.9635 6.74805 17.0313C6.44596 17.1042 6.07878 17.1484 5.64648 17.1641C4.8444 17.1953 4.14128 17.0885 3.53711 16.8437C2.93815 16.599 2.47201 16.2187 2.13867 15.7031C1.80534 15.1875 1.64128 14.5365 1.64648 13.75V2.125ZM9.40039 17V5H12.627V7.09375H12.752C12.9707 6.34896 13.3379 5.78646 13.8535 5.40625C14.3691 5.02083 14.9629 4.82812 15.6348 4.82812C15.8014 4.82812 15.9811 4.83854 16.1738 4.85937C16.3665 4.88021 16.5358 4.90885 16.6816 4.94531V7.89844C16.5254 7.85156 16.3092 7.8099 16.0332 7.77344C15.7572 7.73698 15.5046 7.71875 15.2754 7.71875C14.7858 7.71875 14.3483 7.82552 13.9629 8.03906C13.5827 8.2474 13.2806 8.53906 13.0566 8.91406C12.8379 9.28906 12.7285 9.72135 12.7285 10.2109V17H9.40039ZM21.4805 17.2266C20.7148 17.2266 20.0326 17.0938 19.4336 16.8281C18.8346 16.5573 18.3607 16.1589 18.0117 15.6328C17.668 15.1016 17.4961 14.4401 17.4961 13.6484C17.4961 12.9818 17.6185 12.4219 17.8633 11.9687C18.1081 11.5156 18.4414 11.151 18.8633 10.875C19.2852 10.599 19.7643 10.3906 20.3008 10.25C20.8424 10.1094 21.4102 10.0104 22.0039 9.95312C22.7018 9.88021 23.2643 9.8125 23.6914 9.75C24.1185 9.68229 24.4284 9.58333 24.6211 9.45312C24.8138 9.32292 24.9102 9.13021 24.9102 8.875V8.82812C24.9102 8.33333 24.7539 7.95052 24.4414 7.67969C24.1341 7.40885 23.6966 7.27344 23.1289 7.27344C22.5299 7.27344 22.0534 7.40625 21.6992 7.67187C21.3451 7.93229 21.1107 8.26042 20.9961 8.65625L17.918 8.40625C18.0742 7.67708 18.3815 7.04687 18.8398 6.51562C19.2982 5.97917 19.8893 5.56771 20.6133 5.28125C21.3424 4.98958 22.1862 4.84375 23.1445 4.84375C23.8112 4.84375 24.4492 4.92187 25.0586 5.07812C25.6732 5.23437 26.2174 5.47656 26.6914 5.80469C27.1706 6.13281 27.5482 6.55469 27.8242 7.07031C28.1003 7.58073 28.2383 8.19271 28.2383 8.90625V17H25.082V15.3359H24.9883C24.7956 15.7109 24.5378 16.0417 24.2148 16.3281C23.8919 16.6094 23.5039 16.8307 23.0508 16.9922C22.5977 17.1484 22.0742 17.2266 21.4805 17.2266ZM22.4336 14.9297C22.9232 14.9297 23.3555 14.8333 23.7305 14.6406C24.1055 14.4427 24.3997 14.1771 24.6133 13.8438C24.8268 13.5104 24.9336 13.1328 24.9336 12.7109V11.4375C24.8294 11.5052 24.6862 11.5677 24.5039 11.625C24.3268 11.6771 24.1263 11.7266 23.9023 11.7734C23.6784 11.8151 23.4544 11.8542 23.2305 11.8906C23.0065 11.9219 22.8034 11.9505 22.6211 11.9766C22.2305 12.0339 21.8893 12.125 21.5977 12.25C21.306 12.375 21.0794 12.5443 20.918 12.7578C20.7565 12.9661 20.6758 13.2266 20.6758 13.5391C20.6758 13.9922 20.8398 14.3385 21.168 14.5781C21.5013 14.8125 21.9232 14.9297 22.4336 14.9297ZM30.8203 17V5H34.1484V17H30.8203ZM32.4922 3.45312C31.9974 3.45312 31.5729 3.28906 31.2188 2.96094C30.8698 2.6276 30.6953 2.22917 30.6953 1.76562C30.6953 1.30729 30.8698 0.914062 31.2188 0.585938C31.5729 0.252604 31.9974 0.0859367 32.4922 0.0859367C32.987 0.0859367 33.4089 0.252604 33.7578 0.585938C34.112 0.914062 34.2891 1.30729 34.2891 1.76562C34.2891 2.22917 34.112 2.6276 33.7578 2.96094C33.4089 3.28906 32.987 3.45312 32.4922 3.45312ZM40.1426 10.0625V17H36.8145V5H39.9863V7.11719H40.127C40.3926 6.41927 40.8379 5.86719 41.4629 5.46094C42.0879 5.04948 42.8457 4.84375 43.7363 4.84375C44.5697 4.84375 45.2962 5.02604 45.916 5.39062C46.5358 5.75521 47.0176 6.27604 47.3613 6.95312C47.7051 7.625 47.877 8.42708 47.877 9.35937V17H44.5488V9.95312C44.554 9.21875 44.3665 8.64583 43.9863 8.23438C43.6061 7.81771 43.0827 7.60937 42.416 7.60937C41.9681 7.60937 41.5723 7.70573 41.2285 7.89844C40.89 8.09115 40.6243 8.3724 40.4316 8.74219C40.2441 9.10677 40.1478 9.54688 40.1426 10.0625ZM55.5918 17V5H58.7637V7.11719H58.9043C59.1543 6.41406 59.571 5.85937 60.1543 5.45312C60.7376 5.04687 61.4355 4.84375 62.248 4.84375C63.071 4.84375 63.7715 5.04948 64.3496 5.46094C64.9277 5.86719 65.3132 6.41927 65.5059 7.11719H65.6309C65.8757 6.42969 66.3184 5.88021 66.959 5.46875C67.6048 5.05208 68.3678 4.84375 69.248 4.84375C70.3678 4.84375 71.2767 5.20052 71.9746 5.91406C72.6777 6.6224 73.0293 7.6276 73.0293 8.92969V17H69.709V9.58594C69.709 8.91927 69.5319 8.41927 69.1777 8.08594C68.8236 7.7526 68.3809 7.58594 67.8496 7.58594C67.2454 7.58594 66.7741 7.77865 66.4355 8.16406C66.097 8.54427 65.9277 9.04687 65.9277 9.67187V17H62.7012V9.51562C62.7012 8.92708 62.5319 8.45833 62.1934 8.10937C61.86 7.76042 61.4199 7.58594 60.873 7.58594C60.5033 7.58594 60.1699 7.67969 59.873 7.86719C59.5814 8.04948 59.3496 8.30729 59.1777 8.64062C59.0059 8.96875 58.9199 9.35417 58.9199 9.79687V17H55.5918ZM81.127 17.2344C79.8926 17.2344 78.8301 16.9844 77.9395 16.4844C77.054 15.9792 76.3717 15.2656 75.8926 14.3437C75.4134 13.4167 75.1738 12.3203 75.1738 11.0547C75.1738 9.82031 75.4134 8.73698 75.8926 7.80469C76.3717 6.8724 77.0462 6.14583 77.916 5.625C78.791 5.10417 79.8171 4.84375 80.9941 4.84375C81.7858 4.84375 82.5228 4.97135 83.2051 5.22656C83.8926 5.47656 84.4915 5.85417 85.002 6.35937C85.5176 6.86458 85.9186 7.5 86.2051 8.26562C86.4915 9.02604 86.6348 9.91667 86.6348 10.9375V11.8516H76.502V9.78906H83.502C83.502 9.3099 83.3978 8.88542 83.1895 8.51563C82.9811 8.14583 82.6921 7.85677 82.3223 7.64844C81.9577 7.4349 81.5332 7.32812 81.0488 7.32812C80.5436 7.32812 80.0957 7.44531 79.7051 7.67969C79.3197 7.90885 79.0176 8.21875 78.7988 8.60937C78.5801 8.99479 78.4681 9.42448 78.4629 9.89844V11.8594C78.4629 12.4531 78.5723 12.9661 78.791 13.3984C79.015 13.8307 79.3301 14.1641 79.7363 14.3984C80.1426 14.6328 80.6243 14.75 81.1816 14.75C81.5514 14.75 81.89 14.6979 82.1973 14.5938C82.5046 14.4896 82.7676 14.3333 82.9863 14.125C83.2051 13.9167 83.3717 13.6615 83.4863 13.3594L86.5645 13.5625C86.4082 14.3021 86.0879 14.9479 85.6035 15.5C85.1243 16.0469 84.5046 16.474 83.7441 16.7813C82.9889 17.0833 82.1165 17.2344 81.127 17.2344Z" fill="#640FCD"/>
</svg>
